<svg id="Capa_1" enable-background="new 0 0 512 512" height="512" viewBox="0 0 512 512" width="512" xmlns="http://www.w3.org/2000/svg"><g><path d="m446 447h-380c-8.284 0-15-6.716-15-15v-67.949c0-29.282 12.901-56.828 35.397-75.575 15.635-13.029 24.603-32.175 24.603-52.528v-90.948c0-79.953 65.047-145 145-145s145 65.047 145 145v90.948c0 20.353 8.968 39.499 24.603 52.529 22.496 18.746 35.397 46.292 35.397 75.574v67.949c0 8.284-6.716 15-15 15z" fill="#806e66"/><path d="m446 447c8.284 0 15-6.716 15-15v-67.949c0-29.282-12.901-56.828-35.397-75.574-15.635-13.03-24.603-32.176-24.603-52.529v-90.948c0-79.953-65.047-145-145-145v447z" fill="#4f4540"/><g><path d="m401 512h55c8.284 0 15-6.716 15-15v-12c0-54.102-27.869-101.807-70-129.541l-26 .541-20.254-21.079c-6.661-1.721-13.492-3.015-20.466-3.838l-78.28 11.917-78.28-11.917c-6.974.823-13.805 2.117-20.466 3.838l-15.254 20.079-31 .459c-42.131 27.734-70 75.439-70 129.541v12c0 8.284 6.716 15 15 15h55l145-20z" fill="#fff5f5"/></g><path d="m401 512h55c8.284 0 15-6.716 15-15v-12c0-54.102-27.869-101.807-70-129.541l-26 .541-20.254-21.079c-6.661-1.721-13.492-3.015-20.466-3.838l-78.28 11.917v149z" fill="#e2dff4"/><path d="m354.746 334.921-62.078 88.682c-2.804 4.006-7.397 6.397-12.287 6.397h-48.762c-4.89 0-9.483-2.392-12.288-6.398l-62.077-88.681c-16.663 4.304-32.246 11.317-46.254 20.539v156.54h290v-156.541c-14.008-9.221-29.591-16.234-46.254-20.538z" fill="#55696e"/><path d="m292.668 423.603c-2.804 4.006-7.397 6.397-12.287 6.397h-24.381v82h145v-156.541c-14.008-9.221-29.591-16.234-46.254-20.539z" fill="#3f4a4a"/><path d="m371 220h-52.307v-60h52.307c16.569 0 30 13.431 30 30s-13.431 30-30 30z" fill="#ffbeaa"/><path d="m193.306 220h-52.306c-16.569 0-30-13.431-30-30s13.431-30 30-30h52.307v60z" fill="#ffcdbe"/><path d="m245.85 393.699-68.129-62.616 14.971-6.335c11.097-4.697 18.308-15.578 18.308-27.628v-37.12h90v37.12c0 12.051 7.211 22.932 18.308 27.628l14.971 6.335-68.129 62.616c-5.739 5.275-14.561 5.275-20.3 0z" fill="#ffcdbe"/><path d="m301 260h-45v137.655c3.64 0 7.281-1.319 10.15-3.956l68.129-62.616-14.971-6.335c-11.097-4.697-18.308-15.578-18.308-27.628z" fill="#ffbeaa"/><path d="m256 310c-52.467 0-95-42.533-95-95v-50c0-5.172 2.664-9.979 7.05-12.72l80-50c4.864-3.04 11.036-3.04 15.9 0l80 50c4.386 2.741 7.05 7.548 7.05 12.72v50c0 52.467-42.533 95-95 95z" fill="#ffdecf"/><path d="m256 310c52.467 0 95-42.533 95-95v-50c0-5.172-2.664-9.979-7.05-12.72l-80-50c-2.432-1.52-5.191-2.28-7.95-2.28z" fill="#ffcdbe"/></g></svg>